<svg id="Layer_1" data-name="Layer 1" xmlns="http://www.w3.org/2000/svg" viewBox="0 0 64 64"><defs><style>.cls-1{fill:#f8f8f8;fill-rule:evenodd;}</style></defs><title>coldrun_white</title><polygon class="cls-1" points="48.41 55 12.11 55 8.31 23.23 53.49 26.39 48.41 55"/><polygon class="cls-1" points="5.87 21.74 56.99 25.78 55.3 16.36 9.06 13.74 5.87 21.74"/><polygon class="cls-1" points="21.72 14 25.48 14 27.54 8.94 37.57 10.28 38.32 14.56 42.45 15.01 41.23 7.78 25.1 5.19 21.72 14"/><polygon class="cls-1" points="53.49 32.81 52.77 36.56 58.39 38.81 56.99 44.16 51.36 44.72 50.7 48 59.8 46.41 62.9 37.41 53.49 32.81"/><polygon class="cls-1" points="8.31 30.84 8.97 34.97 4.94 38.72 6.95 45 10.19 45 10.56 48 4.94 48 0.53 37.4 8.31 30.84"/></svg>