<svg id="Layer_1" data-name="Layer 1" xmlns="http://www.w3.org/2000/svg" viewBox="0 0 64 64"><defs><style>.cls-1{fill:#f8f8f8;}</style></defs><title>geo_white</title><path class="cls-1" d="M56.42,28H52.75A21,21,0,0,0,35,10.25V7.07C35,6.42,34,6,33.38,6H30.62C30,6,29,6.42,29,7.07v3.18A21,21,0,0,0,11.25,28H7.67A2.11,2.11,0,0,0,6,29.62v2.76A2.11,2.11,0,0,0,7.67,34h3.58A21,21,0,0,0,29,51.75v3.18c0,.66,1,1.07,1.62,1.07h2.76C34,56,35,55.58,35,54.93V51.75A21,21,0,0,0,52.75,34h3.68A2,2,0,0,0,58,32.38V29.62A2,2,0,0,0,56.42,28ZM35,46.06V42.73c0-.66-1-.73-1.62-.73H30.62c-.66,0-1.62.07-1.62.73v3.33A15.25,15.25,0,0,1,16.94,34h2.93c.66,0,1.13-1,1.13-1.62V29.62C21,29,20.52,28,19.87,28H16.94A15.25,15.25,0,0,1,29,15.94v3.33c0,.66,1,.73,1.62.73h2.76C34,20,35,19.93,35,19.27V15.94A15.25,15.25,0,0,1,47.06,28H44.23C43.57,28,43,29,43,29.62v2.76C43,33,43.57,34,44.23,34h2.83A15.25,15.25,0,0,1,35,46.06Z"/></svg>