<svg id="Layer_1" data-name="Layer 1" xmlns="http://www.w3.org/2000/svg" viewBox="0 0 64 64"><defs><style>.cls-1{fill:gray;}</style></defs><title>geo_grey</title><path class="cls-1" d="M31.81,11.14A20.78,20.78,0,1,0,52.59,31.93,20.78,20.78,0,0,0,31.81,11.14Zm0,36.52A15.73,15.73,0,1,1,47.54,31.93,15.73,15.73,0,0,1,31.81,47.66Z"/><rect class="cls-1" x="5.01" y="29.13" width="10.94" height="5.79" rx="1.56" ry="1.56"/><rect class="cls-1" x="48.05" y="29.13" width="10.94" height="5.79" rx="1.56" ry="1.56"/><rect class="cls-1" x="26.34" y="7.38" width="10.94" height="5.79" rx="1.56" ry="1.56" transform="translate(42.08 -21.53) rotate(90)"/><rect class="cls-1" x="26.86" y="50.83" width="10.94" height="5.79" rx="1.56" ry="1.56" transform="translate(86.05 21.4) rotate(90)"/><circle class="cls-1" cx="31.81" cy="31.93" r="9.72"/></svg>