<svg id="Layer_1" data-name="Layer 1" xmlns="http://www.w3.org/2000/svg" viewBox="0 0 64 64"><defs><style>.cls-1{fill:#f8f8f8;}</style></defs><title>geo_white</title><path class="cls-1" d="M31.81,9.28A20.78,20.78,0,1,0,52.59,30.06,20.78,20.78,0,0,0,31.81,9.28Zm0,36.52A15.73,15.73,0,1,1,47.54,30.06,15.73,15.73,0,0,1,31.81,45.79Z"/><rect class="cls-1" x="5.01" y="27.27" width="10.94" height="5.79" rx="1.56" ry="1.56"/><rect class="cls-1" x="48.05" y="27.27" width="10.94" height="5.79" rx="1.56" ry="1.56"/><rect class="cls-1" x="26.34" y="5.51" width="10.94" height="5.79" rx="1.56" ry="1.56" transform="translate(40.21 -23.4) rotate(90)"/><rect class="cls-1" x="26.86" y="48.96" width="10.94" height="5.79" rx="1.56" ry="1.56" transform="translate(84.19 19.53) rotate(90)"/><circle class="cls-1" cx="31.81" cy="30.06" r="9.72"/></svg>