<svg id="Layer_1" data-name="Layer 1" xmlns="http://www.w3.org/2000/svg" viewBox="0 0 512.09 512"><defs><style>.cls-1{fill:#2b2b2b;fill-rule:evenodd;}.cls-2{fill:#eaeaea;}.cls-3{fill:#ef5350;}</style></defs><title>logo_accent</title><polygon class="cls-1" points="390.88 454.93 128.11 454.93 92.87 223.05 432.06 244.49 390.88 454.93"/><polygon class="cls-1" points="100.68 143.21 458.1 243.41 459.3 174.18 134.55 90.8 100.68 143.21"/><polygon class="cls-1" points="225.66 106.59 251.13 113.69 272.68 81.61 341.99 105.65 340.88 137.34 370.58 144.88 370.58 93.44 260.21 51.55 225.66 106.59"/><polygon class="cls-1" points="430.35 291.97 424.49 318.37 465.23 334.66 455.05 373.36 414.31 377.44 409.56 401.2 475.42 389.66 497.82 324.48 430.35 291.97"/><polygon class="cls-1" points="93.15 276.27 97.9 306.14 68.7 331.87 83.3 375.93 106.73 375.93 109.44 400.93 68.7 400.93 36.79 324 93.15 276.27"/><polygon class="cls-2" points="131.58 211.16 131.58 172.38 72.81 146.45 50.12 73.65 16 153.37 48.63 192.07 100.29 187.32 131.58 211.16"/><path class="cls-2" d="M151.56,245.44l12,9.29,2,17.9-3.44,2.92,4.11,3.18,2,17.81-9.27,8.28-33-1.27L116,243.6ZM134,268.51l17.27.8-1.61-12.66-17.53-.86Zm18.76,12.15-17.08-.75,1.87,12.72,16.81.69Z"/><path class="cls-2" d="M208.8,248.4l.63,11.2L186,258.44,187,271l18.47.86.69,11.17-18.21-.8L189,294.74l22.43.92.63,11.2-35.48-1.36-6-59.07Z"/><path class="cls-2" d="M259,251,259,262l-13.72-.68.56,46.79-13.37-.51-1.39-47L217.38,260l-.52-11.17Z"/><path class="cls-2" d="M309.22,253.6l-.73,10.89-13.72-.68-2.3,46.13-13.38-.51,1.48-46.32-13.67-.67.16-11Z"/><path class="cls-2" d="M355.46,256l-1.36,10.75-23.47-1.16-1.15,12,18.47.86-1.29,10.72-18.21-.8-1.15,12,22.43.92-1.36,10.75-35.48-1.36,4.4-56.71Z"/><path class="cls-2" d="M399.06,258.25l9.4,8.7-3.31,16.7-4.35,2.71,3.23,3L399.12,314l-13.33-.51,3.78-21.09-17-.75-3.3,21.2-13.37-.51,7.67-56Zm-5.23,10.45-17.59-.87-2.06,13.23,17.29.8Z"/><path class="cls-3" d="M155.56,322.07l9,7.43,1.12,9.4-10.43-.31-1-7.27-13.09-.42,1.56,10.41,15.13.44,5.95,4.84,0,0,3.12,2.54,1.75,14.61-6.81,7-17.08-.36L136,363l-1.56-9.53,10.25.26,1.09,7.3,12.57.3L156.95,351l-15.36-.41-8.85-7.35-2.42-14.83,7-6.94Z"/><path class="cls-3" d="M201.07,323.62l.66,9.19-10.21-.32,3.3,38.92-10-.21-3.85-39-10.17-.32-1-9.28Z"/><path class="cls-3" d="M231,324.64l10.7.37.72,40.46-7.54,6.79-17.08-.36-8.11-7.18-2.6-40.89,10.7.36,1.91,38.61,12.53.3Z"/><path class="cls-3" d="M274.09,326.11l7.93,7.17-1.23,33.07-7.92,6.7-24.75-.52-.47-47.33ZM271.41,335l-13.09-.42-.13,29.1,12.57.3Z"/><path class="cls-3" d="M316.64,327.56l-.75,8.88-17.47-.55-.6,9.92,13.77.4-.71,8.85-13.6-.36-.6,9.92,16.78.4-.75,8.88-26.58-.56,2.12-46.74Z"/><path class="cls-3" d="M348.78,328.66l10.7.36-6.65,45.71-11.25-.24L331.19,348l-2.84,26.26-10-.21,4.3-46.24,12,.41,10.73,26.61Z"/><path class="cls-3" d="M396.81,330.3,395.08,339l-10.21-.32-6.76,36.64-10-.21,6.21-36.76L364.12,338l1.35-8.74Z"/><path class="cls-2" d="M163.57,385.79l8.77,7.63,1.18,9.87-10-.11-1-7.63-12.57-.17L154.72,427l12,0-1-7.63,9.76.06,1.18,9.9-6.41,7.46H154l-8.55-7.54-6-36.36L146,385.5Z"/><path class="cls-2" d="M202.63,386.44,211,394l2.29,35.51-6.82,7.37H190.17L182,429.41l-4-35.9,7-7.36ZM201,396.07l-12.57-.17,3,31.26,12,0Z"/><path class="cls-2" d="M241.68,387.09l7.93,7.44.28,35.06-7.24,7.27H226.38l-7.71-7.35-2-35.45,7.46-7.26Zm-2.16,9.5-12.57-.17,1.28,30.86,12,0Z"/><path class="cls-2" d="M289.88,387.88l-16.11,24.38,13.57,24.6H276.69l-11.54-20.51-.32,20.51h-9.54l0-49.55,10.29.17L265.29,408l13.11-20.33Z"/><path class="cls-2" d="M295.64,388l10.29.17-3.71,48.71h-9.54Z"/><path class="cls-2" d="M336.84,388.66l10.29.17-6.71,48H329.71l-9.82-27.6-2.78,27.6h-9.54l4.13-48.61,11.56.19,10.2,27.68Z"/><path class="cls-2" d="M378.32,389.35l6.47,7.11-1.85,9.18-10-.11,1.32-7.1-12.57-.17-4.86,29.46,12,0,1.88-10.13-5.66,0,1.6-9.09,15.69.16L378,429.92l-8.7,6.94H353.06l-6.25-7,5-33.85,8.92-6.93Z"/></svg>