<svg id="Layer_1" data-name="Layer 1" xmlns="http://www.w3.org/2000/svg" viewBox="0 0 64 64"><defs><style>.cls-1{fill:#009688;}</style></defs><title>meat_theme</title><path class="cls-1" d="M43.45,19.12l5.79,13,8.06,5.78,4-6.75L53.62,15.91l-8-3.47Zm8.62,9.45-2.31-1.9,0-3.34,4.07,1.35Z"/><polygon class="cls-1" points="45.27 12.27 45.27 12.27 45.26 12.27 45.27 12.27"/><polygon class="cls-1" points="51.8 27.43 52.82 25.11 50.44 24.32 50.47 26.33 51.8 27.43"/><polygon class="cls-1" points="48.65 32.62 42.67 19.17 44.81 12.51 27.93 21.44 22.32 28.72 18.06 36.5 18.32 39.91 19.4 41.58 25.6 43.56 35.1 44.59 56.7 38.38 48.65 32.62"/><polygon class="cls-1" points="17.63 40.15 17.42 37.42 10.82 39.88 8.43 36.96 5.19 37.47 4.85 40.88 7.97 42.81 5.32 46.72 6.9 48.94 11.38 49.08 12.97 43.72 18.41 41.35 17.63 40.15"/><polygon class="cls-1" points="57.14 38.25 57.15 38.25 57.16 38.23 57.14 38.25"/></svg>