<svg id="Layer_1" data-name="Layer 1" xmlns="http://www.w3.org/2000/svg" viewBox="0 0 64 64"><defs><style>.cls-1{fill:gray;}</style></defs><title>milk_grey</title><path class="cls-1" d="M43.74,23.59l-2.35-5.81L40.3,17l-4.42-1.08L35.95,7,38,5.61V4.53L37.57,3H26.42L26,4.53V5.61L28.05,7l.12,8.92L23.72,17l-1.1.81-2.35,5.81L19,30.9l.53,26.8L25.34,61H38.65l5.82-3.31L45,30.93ZM28.19,35H38.81l2.86,1.48L37.4,37.72l-9.63.47L22.2,36.05Zm10,24H25.67L21,56.39V36.81l6.45,2.68,9.62-.55L42,37.22V56.39Z"/></svg>