<svg id="Layer_1" data-name="Layer 1" xmlns="http://www.w3.org/2000/svg" viewBox="0 0 64 64"><defs><style>.cls-1{fill:#f8f8f8;}</style></defs><title>no_gluten_white</title><polygon class="cls-1" points="20 40.31 15.54 29.24 16.14 44 20 44 20 40.31"/><polygon class="cls-1" points="24 40 24 35.9 19.75 25.03 20.55 40 24 40"/><polygon class="cls-1" points="29 35 29 31.48 24.45 20.32 24.97 35 29 35"/><polygon class="cls-1" points="33 31 33 27.06 28.66 16.11 29.39 31 33 31"/><polygon class="cls-1" points="38 26 38 22.65 33.37 11.4 33.8 26 38 26"/><polygon class="cls-1" points="41 29 41 32.78 53.67 32.49 45.31 29 41 29"/><polygon class="cls-1" points="51.86 14.41 42 21.08 42 25 45.91 25 51.86 14.41"/><polygon class="cls-1" points="37 33 37 37.19 49.46 36.7 40.89 33 37 33"/><polygon class="cls-1" points="32 38 32 41.61 44.75 41.41 36.48 38 32 38"/><polygon class="cls-1" points="28 42 28 46.03 40.55 45.62 32.06 42 28 42"/><polygon class="cls-1" points="24 47 24 50.44 36.34 50.33 27.64 47 24 47"/><polygon class="cls-1" points="40.4 25.06 17.33 48.57 18.69 49.66 42.1 26.29 40.4 25.06"/><path class="cls-1" d="M33,4.21A27.78,27.78,0,0,0,14.6,11.1L14.52,11l-1.21,1,.12.14A27.89,27.89,0,1,0,33,4.21ZM6.55,32.1a26.33,26.33,0,0,1,7.85-18.78L48.5,53.45a26.41,26.41,0,0,1-42-21.36ZM49.75,52.48,15.55,12.23a26.41,26.41,0,1,1,34.2,40.25Z"/></svg>