<svg id="Layer_1" data-name="Layer 1" xmlns="http://www.w3.org/2000/svg" viewBox="0 0 64 64"><defs><style>.cls-1{fill:gray;}</style></defs><title>red_wine_grey</title><polygon class="cls-1" points="24.44 40 39.43 40 45.06 36.8 45.15 32.55 43.86 25.12 41.48 21.73 40.38 20.9 35.88 19.8 35.93 5.51 38 4.14 38 3.04 37.6 2 31.93 2 26.27 2 26 3.04 26 4.14 28 5.51 28.09 19.8 23.54 20.89 22.42 21.72 20.02 25.1 18.73 32.52 18.81 36.8 24.44 40"/><polygon class="cls-1" points="39.43 51 24.44 51 19.08 48.01 19.26 56.84 25.17 60 31.93 60 38.7 60 44.61 56.85 44.79 47.94 39.43 51"/></svg>