<svg id="Layer_1" data-name="Layer 1" xmlns="http://www.w3.org/2000/svg" viewBox="0 0 64 64"><defs><style>.cls-1{fill:#673ab7;}</style></defs><title>spice_accent</title><polygon class="cls-1" points="31.39 35.04 33.16 31.52 36.92 31.15 39.44 27.97 40.74 23 46.6 17.14 50.01 17.57 53.02 15.47 53.52 11.92 51.97 9.16 52.2 8.93 52.38 7.82 53.85 7.88 54.28 7.46 53.11 5.9 51.55 4.73 51.13 5.16 51.19 6.62 50.08 6.81 49.85 7.04 47.08 5.49 43.53 5.98 41.43 9 41.87 12.41 36.01 18.27 31.03 19.56 27.85 22.08 27.48 25.84 23.97 27.61 21.74 27.78 18.15 31.36 18.98 34.26 21.7 37.31 21.7 37.31 21.7 37.31 21.7 37.31 21.7 37.31 24.74 40.03 27.64 40.86 31.23 37.27 31.39 35.04"/><polygon class="cls-1" points="19.42 39.33 20.97 39.33 19.42 41.27 19.42 39.33"/><polygon class="cls-1" points="21.99 44.02 24 43.06 24 45.39 21.99 44.02"/><polygon class="cls-1" points="16.95 47 18.96 47 17.95 49.43 16.95 47"/><polygon class="cls-1" points="25.41 48.8 27 48.04 27 50.31 25.41 48.8"/><polygon class="cls-1" points="22.53 52.81 24.2 54 21.5 54 22.53 52.81"/><polygon class="cls-1" points="13.28 50.26 15.01 50.98 14.54 49.39 13.28 50.26"/><polygon class="cls-1" points="17.22 52.99 19.07 52.99 17.86 54.41 17.22 52.99"/><polygon class="cls-1" points="11.53 54.37 13.28 55.09 11.09 55.87 11.53 54.37"/><polygon class="cls-1" points="20.71 56.46 21.95 55.87 23.3 57.81 20.71 56.46"/><polygon class="cls-1" points="20.77 48.66 22.22 48.66 22.22 46.96 20.77 48.66"/></svg>