<svg id="Layer_1" data-name="Layer 1" xmlns="http://www.w3.org/2000/svg" viewBox="0 0 64 64"><defs><style>.cls-1{fill:#673ab7;}</style></defs><title>tomato_accent</title><polygon class="cls-1" points="26.2 14.01 22.01 16.62 29 15.51 29 21.6 31.9 16.16 37.86 19.59 34.88 15 40.66 15 35.48 12.4 33 13.37 33 11.47 32.28 6.16 28.44 6.79 29.3 13.32 23.07 11.47 26.2 14.01"/><polygon class="cls-1" points="53.11 16.86 44.97 12.32 40.52 12.17 38.77 12.57 45.94 16 37.16 16 41.74 23.11 32.51 17.82 28 26.62 28 16.95 16.43 18.76 24.11 13.88 20.72 11.14 14.52 13.34 10.37 19.28 8.25 34.27 14.27 48.39 28.85 54.52 44.48 51.66 56.91 44.59 57.51 30.86 53.11 16.86"/></svg>