<svg id="Layer_1" data-name="Layer 1" xmlns="http://www.w3.org/2000/svg" viewBox="0 0 64 64"><defs><style>.cls-1{fill:#009688;}</style></defs><title>whisp_theme</title><path class="cls-1" d="M5.23,49.78l.6.6-.37,2,6.06,6.06,2.19-.22.68.68,10.74-.85,9.68-19.47-1.45-1.45.46-.89-2.36-2.36L31,33.45l-1.3-1.3L28.58,31l-1,.4-1.2-1.2L7.27,38,7.13,38Zm6.52,8L6.15,52.21l.23-1.28,2.22,2.22L9.95,54.5l.47.47.61.61,2.1,2.1Zm-.74-16L29.67,34.3l.24.24L10.36,54.09,9.23,53Zm23.07-3.08-9.35,18.8-10.14.8-.14-.14L23,57.32l10.07-19.6Zm-11.48,18-8.73.88L11.8,55.52l10-.79,9.41-18.92,1.44,1.44ZM31,34.36l2,2-.17.31-1.44-1.44-.67-.67Zm-.65.65.36.36-9.35,18.8L11.24,55l-.41-.41Zm-1.93-3.23,2.12,2.12-.24.24-.53-.53-1.68-1.68Zm-.91.39,1.67,1.67L10.63,41.31l-.15.06L8.71,52.43l-2.2-2.2,1.82-10Zm-1.22-1.22.74.74L7.92,39.73l-.16.06L6,49.69l-.09-.09L7.66,38.45Z"/><polygon class="cls-1" points="56.22 13.11 51.05 7.93 29.69 32.15 32.72 35.17 56.22 13.11"/></svg>