<svg id="Layer_1" data-name="Layer 1" xmlns="http://www.w3.org/2000/svg" viewBox="0 0 64 64"><defs><style>.cls-1{fill:#009688;}</style></defs><title>white_wine_theme</title><path class="cls-1" d="M46.45,33.47l-1.32-7.6-2.51-3.69L41.19,21.1l-4-1L37.57,7,40,5.58V3.83L38.6,2H26.16L25,3.82V5.58L27.3,7l.2,13.15-4,1L22.1,22.17,19.6,25.86l-1.31,7.6.08,3.8,0,0,.31,11.32.2,9.88L25.37,62h14l6.54-3.56.2-9.93.31-11.3,0,0,.07-3.7ZM44.21,57.78,38.91,61H25.82l-5.3-3.22-.16-8.15L24.87,52h15l4.5-2.37ZM39.87,41h-15l-4.78-2.72L20,33.62l1.26-7.27,2.26-3.09.77-.58,5-1.22L29.14,6,27,4.63V4.2L27.23,3H37.48L38,4.18v.45L35.73,6,35.5,21.45l5,1.22.76.58,2.26,3.08,1.25,7.26-.09,4.68Z"/></svg>