<svg id="Layer_1" data-name="Layer 1" xmlns="http://www.w3.org/2000/svg" viewBox="0 0 64 64"><defs><style>.cls-1{fill:#2b2b2b;}</style></defs><title>carrot</title><polygon class="cls-1" points="26.33 27.1 28.96 25.44 26.53 21.59 25.86 23.43 20.33 15.17 20.68 19 12.09 12.93 16.68 19.08 13.79 20.91 21.11 22.78 19.32 24.53 26.33 27.1"/><polygon class="cls-1" points="23.27 17.94 25.8 21.96 26.67 20.23 29.39 24.55 30.91 19.77 29.07 19.98 31.4 14.62 27.02 15.09 31.35 10.13 27.77 11.12 26.31 3.4 24.52 10 21.58 8.6 24.25 15.48 21.14 13 23.27 17.94"/><polygon class="cls-1" points="49.22 57.95 43.13 44.37 41.94 44.76 42.45 42.96 39.85 37.11 38.95 37.34 39.15 35.61 36.19 29 34.75 29 35.62 27.64 34.83 25.83 30.84 25.3 26.75 27.88 26.21 31.08 30.55 36 32.02 36 31.47 37.22 35.66 42.2 37 42.14 37 43.85 41.38 49 43 49 43 50.52 49.22 57.95"/></svg>