<svg id="Layer_1" data-name="Layer 1" xmlns="http://www.w3.org/2000/svg" viewBox="0 0 64 64"><defs><style>.cls-1{fill:#2b2b2b;}.cls-2{fill:none;}</style></defs><title>chicken</title><polygon class="cls-1" points="6.14 24.64 5.18 21.39 2.46 21.47 1.5 22.82 3.11 25.19 1.21 26.36 1.42 28.43 3.38 28.74 4.83 26.97 8.84 28.46 8.96 26.8 9.44 26.07 6.14 24.64"/><polygon class="cls-1" points="55.95 27.96 42.67 19.7 30.83 20.31 23.64 25.28 19.56 24.11 13.8 24.73 10.04 25.94 9.38 26.95 9.23 29.02 11.81 33.74 15.21 38.16 16.33 38.75 16.03 39.5 11.54 40.93 17.66 45.12 52.27 48.18 61.97 40.01 55.95 27.96"/><path class="cls-2" d="M37.1,30.4l-.26,1.86,2.36-.46-.68-2.29Zm.21,1.36.16-1.12.82-.52.4,1.37Z"/><path class="cls-1" d="M42.09,24.67l-4.9,2.65L33,34.16,33.76,38l4.72-1.36,5.37-8Zm-5.25,7.59.26-1.86,1.42-.89.68,2.29Z"/><polygon class="cls-1" points="33.58 38.1 33.58 38.1 33.57 38.1 33.58 38.1"/><polygon class="cls-1" points="37.46 30.64 37.31 31.76 38.69 31.49 38.28 30.12 37.46 30.64"/><polygon class="cls-1" points="30.64 19.93 31.98 19.86 30.01 19.02 24.65 18.92 21.06 19.59 20.34 20.43 19.95 22.32 20.64 24.06 23.45 24.91 30.64 19.93"/><polygon class="cls-1" points="36.9 27.01 41.78 24.38 32.17 20.24 30.83 20.31 23.64 25.28 20.83 24.43 21.96 27.32 24.57 31.77 33.34 37.94 32.62 34.08 36.9 27.01"/><polygon class="cls-1" points="19.97 20.25 20.49 19.64 17.63 17.94 17.13 14.84 14.62 14.6 13.58 15.72 14.78 18.09 12.91 18.95 12.86 20.87 14.62 21.38 16.16 19.92 19.66 21.76 19.97 20.25"/><polygon class="cls-1" points="42.03 24.49 42.02 24.48 42.02 24.48 42.03 24.49"/></svg>