<svg id="Layer_1" data-name="Layer 1" xmlns="http://www.w3.org/2000/svg" viewBox="0 0 64 64"><defs><style>.cls-1{fill:#f8f8f8;}</style></defs><title>egg_white</title><polygon class="cls-1" points="40.22 24.37 40.32 31.45 45.47 29.17 45.51 35.31 51.61 33.14 51.93 36.46 58.97 23.73 55.77 13.57 45.92 11.07 34.84 20 35.47 25.87 40.22 24.37"/><polygon class="cls-1" points="15.99 37.07 19.3 36.75 17.13 30.65 23.28 30.61 21 25.47 28.07 25.36 26.58 20.61 32.45 19.98 27.11 13.35 15.52 10.59 8.94 16.73 5 24.7 8.65 33.01 15.99 37.07"/><polygon class="cls-1" points="56 45.85 56 42.97 52.69 39.59 43.3 41 39.5 41 41.35 44.6 34.42 45.76 25.03 44.58 23.11 42.76 24.35 40.32 18.01 40 10.01 40 5 42.33 5 45.43 13.75 45.32 9.8 48.63 11.68 53.22 27.77 52.36 41.79 49.27 53.21 54.5 60.16 50.98 56 45.85"/><polygon class="cls-1" points="38.08 41.03 37.51 39.91 30.9 37.85 26.09 39.91 25.89 40.35 24.89 42.49 26.43 43.95 33.99 44.89 39.57 43.95 38.08 41.03"/></svg>