<svg id="Layer_1" data-name="Layer 1" xmlns="http://www.w3.org/2000/svg" viewBox="0 0 270.39 257.81"><defs><style>.cls-1{fill:#3eb481;}.cls-2{fill:#57be8e;}</style></defs><title>logo</title><g id="_Group_" data-name="&lt;Group&gt;"><g id="_Group_2" data-name="&lt;Group&gt;"><path id="_Compound_Path_" data-name="&lt;Compound Path&gt;" class="cls-1" d="M97.54,207.72c-9,2.66-25.12-4-29.33-11.95a25.44,25.44,0,0,1-2.37-9.35c-.95-10-.37-20.09-.37-30.16a11,11,0,0,1,4.16,10c-.45,7.13-.08,14.31,2.32,21,2.46,6.84,7.63,11.55,14.53,14.22A26.52,26.52,0,0,0,97,203.77a2,2,0,0,1,2.34,2C99.4,207,98.59,207.41,97.54,207.72Z"/><path id="_Compound_Path_2" data-name="&lt;Compound Path&gt;" class="cls-1" d="M184.42,217.62h-.8c-16.45-.43-81.9-.31-98.46,0A28.67,28.67,0,0,1,64.24,209a30.64,30.64,0,0,1-9.06-21.79c.17-6.75.14-13.63.11-20.27,0-5.31,0-10.81,0-16.21,0-3.11-.82-4.27-3.71-5-4-1-7.94-2.13-11.78-3.25s-8-2.34-12.1-3.33c-2.14-.52-3.36-1.24-4-2.34s-.56-2.6.22-4.93c.71-2.13,1.27-3.81,2.72-4.53,1-.51,2.38-.44,4.24.22,4.12,1.45,8.43,2.62,12.59,3.76,2.78.76,5.65,1.54,8.46,2.41,1.5.46,2.41.51,2.84.15s.51-1.09.36-2.29a4,4,0,0,1,.69-3.27c.91-1,2.5-1.16,3.94-1.16,48,.06,98.46.06,150,0h0c1.36,0,2.88.09,3.72,1a3.66,3.66,0,0,1,.59,3c-.15,1.14,0,1.88.33,2.21.53.47,1.74.26,3,0,3.35-.81,6.78-1.56,10.09-2.29,4.36-1,8.87-1.95,13.26-3.08,1.71-.44,2.95-.33,3.8.33s1.23,1.76,1.24,3.42h0a6.72,6.72,0,0,0,.57,2.13c.49,1.3,1,2.64.35,3.82-.5.9-1.61,1.51-3.38,1.87-4.17.83-8.38,1.82-12.45,2.77s-8.58,2-12.9,2.86c-3.11.61-4,1.83-4,5.22.09,5,0,10.11,0,15-.06,7-.13,14.31.2,21.44a30,30,0,0,1-8.75,21.86A29.23,29.23,0,0,1,184.42,217.62Z"/></g><path id="_Path_" data-name="&lt;Path&gt;" class="cls-2" d="M65.47,156.27c0,10.06-.58,20.18.37,30.16a25.44,25.44,0,0,0,2.37,9.35c4.2,7.93,20.32,14.6,29.33,11.95,1.06-.31,1.87-.69,1.8-1.94a2,2,0,0,0-2.34-2,26.52,26.52,0,0,1-10.52-2.27c-6.9-2.68-12.07-7.39-14.53-14.22-2.41-6.69-2.77-13.87-2.32-21A11,11,0,0,0,65.47,156.27Z"/></g><path id="_Path_2" data-name="&lt;Path&gt;" class="cls-1" d="M64.31,92.62c-.42-.79-1.86-2.28-1.81-3.71.11-2.92.22-6.46,1.87-8.51,1.3-1.61,5.19-2.4,7.43-1.77C80.2,81,85.62,87,88.37,95.13c1.25,3.7,1.24,7.66-2.58,10.32-3.61,2.52-6.91,1.27-10.08-1-.79-.57-1.64-1-1.95-1.23-5.31.49-7.15,11.75-14.39,3.26C52.65,98.57,63.71,98.37,64.31,92.62Z"/><path id="_Path_3" data-name="&lt;Path&gt;" class="cls-1" d="M85.1,48.39c14.39-4.64,24.89.33,28.49,12.34l-11.55-8-.66.94c3.05,2.39,6.16,4.71,9.15,7.17s2.22,4.72-.89,6.54c-4.13,2.42-9,2.17-12.66-2.06C92.65,60.27,89.25,54.4,85.1,48.39Z"/><path id="_Path_4" data-name="&lt;Path&gt;" class="cls-1" d="M155.76,46.86a21.45,21.45,0,0,0,3.61,3.21c.79.65,1.63,1.25,2.37,2a4.56,4.56,0,0,0,3.13,1.49,2.54,2.54,0,0,1,1.52.77.59.59,0,0,1,.11.93c-.59.57-.09.76.29,1a5.68,5.68,0,0,0,3.91.62,12.6,12.6,0,0,1,5.72,0c1.17.32,1.33.63.72,1.68a12.77,12.77,0,0,1-2.71,3.91c-.95.78-1.16,2.12-1.39,3.3a23.67,23.67,0,0,1-.67,2.6c-.24.74-.66.75-1.24.34a19.08,19.08,0,0,1-4.41-4.52,7.6,7.6,0,0,0-5.22-3.35c1.16.93.66,1.7.21,2.44a17.23,17.23,0,0,1-2.43,2.84c-.51.55-1.16.43-1.6-.29-1-1.56-1.91-3.12-2.75-4.74a4,4,0,0,0-2.47-2.35,31.4,31.4,0,0,1-3.31-1.29c-.61-.25-1-.2-1.22.53-.28.92-.63,1.81-1,2.7-.18.45-.45.92-1,.86s-.48-.61-.6-1-.28-1.05-.44-1.58-.12-.95-.94-1.05c-.66-.08-.62-1.09-.53-1.66a1.12,1.12,0,0,0-.74-1.36,29.47,29.47,0,0,1-6.22-4.16c-.52-.45-.82-.36-1.1.2A3.94,3.94,0,0,1,134.7,52c-.22.22-.54.53-.93.41s-.48-.57-.51-1c-.07-.83-.16-1.66-.16-2.5a3.75,3.75,0,0,0-1.37-2.74c-1.83-1.79-3.61-3.64-5.41-5.47a3.51,3.51,0,0,1-1-1.73c-.11-.51-.56-1.2.53-1.2.31,0,.2-.26.15-.43-.23-.83.25-1.17.95-1.38a9.69,9.69,0,0,1,4.18-.26,43.78,43.78,0,0,1,15.28,4.65,3.53,3.53,0,0,0,3.53.14,23,23,0,0,1,5.33-1.6c.74-.16,1.15,0,1.26.91a46.34,46.34,0,0,0,.85,6.08c.23.95-.1,1.22-1.08,1Z"/><g id="_Group_3" data-name="&lt;Group&gt;"><path id="_Path_5" data-name="&lt;Path&gt;" class="cls-1" d="M198.82,86.66v15.1c5.07-3.2,5.4-4.11,3.56-9.33a4.53,4.53,0,0,1,1.25-4.88.87.87,0,0,1,1.49,0c1.27,1.67,1.62,3.49.42,5.29-.75,1.13-2.12,2-1.22,3.65,1.12,0,1.43-1.2,2.32-1.5l.45.43a7.59,7.59,0,0,1-3.69,4.78c-3.69,2.38-4.84,6.11-5.2,10.22a.65.65,0,0,0-.61,0l0,0-.23-2.37q0-10.69,0-21.38l1-.11Z"/><path id="_Path_6" data-name="&lt;Path&gt;" class="cls-1" d="M188.88,99.7l-1.41-2a46.18,46.18,0,0,0-9.71-14c.3-.32.6-.92.91-.93,6-.24,11.86,6.88,10.3,12.66-.47,1.75.56,2.66,1,3.94l-.28.29Z"/><path id="_Path_7" data-name="&lt;Path&gt;" class="cls-1" d="M198.37,86.63l-1,.11c-5.51-3.52-5.55-13.72-.06-17.09a1.07,1.07,0,0,1,1.73.49c-.89.69-.71,1.69-.71,2.62C198.33,77.38,198.35,82,198.37,86.63Z"/><path id="_Path_8" data-name="&lt;Path&gt;" class="cls-1" d="M222.09,80.93c.52,7.49-4,12.57-11.23,12.59a11.6,11.6,0,0,0-2.36.49l-.42-.45,1.17-1.81c1.67.22,2.58-.95,3.6-1.94C215.92,86.85,219,83.89,222.09,80.93Z"/><path id="_Path_9" data-name="&lt;Path&gt;" class="cls-1" d="M222.09,80.93c-3.08,3-6.17,5.91-9.24,8.89-1,1-1.93,2.16-3.6,1.94-1.5-3.68.51-6.3,3-8.38C215,81.06,218.14,79,222.09,80.93Z"/><path id="_Path_10" data-name="&lt;Path&gt;" class="cls-1" d="M177.76,83.71a46.18,46.18,0,0,1,9.71,14C180.28,97.57,176.35,91.93,177.76,83.71Z"/><path id="_Path_11" data-name="&lt;Path&gt;" class="cls-1" d="M198.37,86.63c0-4.62,0-9.25-.06-13.87,0-.93-.18-1.93.71-2.62,5.4,5.5,5.31,12.83-.21,16.52Z"/><path id="_Path_12" data-name="&lt;Path&gt;" class="cls-1" d="M202,111.9a7.13,7.13,0,0,1,3.3-8.1c.81-.53,1.7-1.15,2.59-.6s.52,1.51.47,2.32C208.17,109.54,205.25,110.9,202,111.9Z"/><path id="_Path_13" data-name="&lt;Path&gt;" class="cls-1" d="M190.88,102.75a6.25,6.25,0,0,0-5.06.74c-1.79,1.16-3.67.43-5.18-1a.9.9,0,0,1,.12-1.51c1.8-1.3,3.64-1.6,5.6-.28s2,1.31,3.12-.11l1-.31,0,0c0,.69,0,1.32.92,1.41v-.08l-.24.91Z"/><path id="_Path_14" data-name="&lt;Path&gt;" class="cls-1" d="M191.82,95.88c.1-1.58.35-3.58,2-3.64,1.54-.05,1.91,2,2,3.4s-.21,3.18-2.06,3.18C192.2,98.82,191.9,97.28,191.82,95.88Z"/><path id="_Path_15" data-name="&lt;Path&gt;" class="cls-1" d="M192,102.42l4.19,5.87c.39.78.49,1.76,1.42,2.19l0,0v.85c-3.12-1.48-4-4.75-5.77-7.28Z"/><path id="_Path_16" data-name="&lt;Path&gt;" class="cls-1" d="M197.6,110.49c-.93-.44-1-1.41-1.42-2.19l1.19-.18Z"/><path id="_Path_17" data-name="&lt;Path&gt;" class="cls-1" d="M191.41,101.67c-.88-.1-1-.72-.92-1.41Z"/><path id="_Path_18" data-name="&lt;Path&gt;" class="cls-1" d="M192,102.42l-.17,1.62-.93-1.29.29-.26.82-.06Z"/><path id="_Path_19" data-name="&lt;Path&gt;" class="cls-1" d="M192,102.44l-.82.06.24-.91Z"/><path id="_Path_20" data-name="&lt;Path&gt;" class="cls-1" d="M206.63,95l.72-.72.44.43-.72.72Z"/><path id="_Path_21" data-name="&lt;Path&gt;" class="cls-1" d="M208.51,94l-.72.72-.44-.43.74-.74Z"/></g></svg>