<?xml version="1.0" encoding="utf-8"?>
<!-- Generator: Adobe Illustrator 19.0.0, SVG Export Plug-In . SVG Version: 6.00 Build 0)  -->
<svg version="1.1" id="Layer_1" xmlns="http://www.w3.org/2000/svg" xmlns:xlink="http://www.w3.org/1999/xlink" x="0px" y="0px"
	 viewBox="0 0 381 276" style="enable-background:new 0 0 381 276;" xml:space="preserve">
<style type="text/css">
	.st0{fill:#004D40;}
	.st1{fill:#004337;}
	.st2{fill:#02897C;}
	.st3{fill:#00988A;}
</style>
<path id="XMLID_454_" class="st0" d="M175.1,33.9c-10.6-8.6-21.7-16.2-35.8-15.6c-10.8,0.5-21.6,2.9-32.4,4.3
	c-14.1,1.9-24.1,10.5-32.5,20.8c-4.7,5.8-8.9,12-14.4,17.2c-2,1.9-4,5.6-3.5,7.9c1.6,7.1,3.5,14.5,7,20.7c2.3,4,3.9,7.2,3.3,11.7
	c-0.6,4.5,0.9,7.7,5.4,10c7,3.6,26.4,13,27.1,11.8c0.6-1-0.4-6.7,1.9-6.6c1.5,0,22.6,0.1,22.6,0.1c-5.2-3.3-25.9-16.1-30.4-20.2
	c-8.5-7.6-9.6-9-3.5-18.7c3.7-5.9,78.8-23.1,79.8-25.3c0.2-0.5,0-1.1-0.3-1.5c-2.2-2.4-20.1-5.9-25.6-6.3c-5.5-0.4-11.2,0.4-16.7,1
	c-2.5,0.2-4-0.3-3.5-3c0.5-2.4,5.8-4.3,8-3.1c1,0.5,2.3,1.9,2.8,1.6c6.6-3.3,13.1-1.1,19.8-0.9c5.8,0.2,11.6,0.2,17.4,1.1
	c1.7,0.2,4.6-0.7,5.2-1.9C177.3,38,176.9,35.4,175.1,33.9z"/>
<path id="XMLID_453_" class="st0" d="M219.1,31c4,2.1,7.3,1.6,11,0.3c1.4-0.5,3.1-0.4,3.5,0.3c3.4,4.6,8.1,3.7,12.8,3.6
	c1.6,0,4.3,0.7,4.5,1.6c1.1,4.3,4.2,5.8,8,6.7c1.1,0.2,2.2,0.6,3.3,0.9c0,0-2,3.3-4.9,3.2c-6.5-0.1-12.8-1.2-19.3-1.5
	c-0.8,0-8.5-1.2-11.6-1.5c-1.1-0.1-2.5,0.7-3.3,0.3c-7.7-4.7-12.2,1.6-17.9,5.2c13.2,4.7,26.4,8.5,39.6,12.3
	c13.3,3.8,26.7,7.5,40,11.3c-3,5.2-13.4,15.3-14.2,16.2c-4,4.4-23.8,23.5-26.2,27.3c0,0,12.2,0,12.2,0c8.9,0.1,10.2-1.3,10,5.5
	c0,1.4,2.4,1.3,3.7,0.7c4.7-2,11.7-9.9,14.7-11c9.6-3.5,14.9-15.2,23.5-21.5c4.9-3.6,11.2-20,7.3-26.8c-3.4-6.1-6.9-12.1-11-17.8
	c-9.2-13-21.1-22-37.2-25.7c-17.5-4-34.7-5.1-51.9,0.5c-5.3,1.7-10.4,4.1-12.3,11.3c2.4-0.1,4-0.2,5.6-0.3
	C212.6,31.6,216.6,29.7,219.1,31z"/>
<path id="XMLID_452_" class="st1" d="M260.4,36.1c-1.8-1.2-33.6-16.1-55.3-7.6c-0.6,1.1-1.1,2.3-1.5,3.8c2.4-0.1,4-0.2,5.6-0.3
	c3.3-0.4,7.4-2.2,9.9-1c4,2.1,7.3,1.6,11,0.3c1.4-0.5,3.1-0.4,3.5,0.3c3.4,4.6,8.1,3.7,12.8,3.6c1.6,0,4.3,0.7,4.5,1.6
	c0.7,2.6,2.2,4.7,4,5.7c1.2,0.3,7.2,1.9,7.1,2C265.5,46.2,260.8,36.4,260.4,36.1z"/>
<path id="XMLID_451_" class="st1" d="M284.9,73.7c-0.4,0.7-8.4,11.4-13.1,15.1c4.7-2.5,10.6-7,12.9-9.5c1.1-1.2,3.2-3.8,3.9-5.3
	c0.6-1.9-0.1-4.1-0.8-4.5c-5.2-1.7-26.5-6-33.9-9.2c-4.8-1.8-24.6-8.5-27.8-8.5c-4.3,0-12.5-3-16.1-4.6c-2.7,1.5-2.1,1.2-4.8,2.9
	c13.2,4.7,26.4,8.5,39.6,12.3C258.2,66.2,271.6,69.9,284.9,73.7z"/>
<path id="XMLID_450_" class="st1" d="M316.5,65.3c-1.4,3.2-6,14.3-8.6,16.8c-2.2,2.2-21.8,23.1-21.8,23.2c-1.7,2.7-15.5,8.7-18,10.6
	c-1,0.6-1.9,1-2.9,1.5c1.4,0.5,1.6,1.9,1.5,5.3c0,1.4,2.4,1.3,3.7,0.7c4.7-2,11.7-9.9,14.7-11c9.6-3.5,14.9-15.2,23.5-21.5
	C313.3,87.4,319.1,72.7,316.5,65.3z"/>
<path id="XMLID_449_" class="st0" d="M280.9,181.4c-2.7-1-11.3-4-11.9-3.7c0.2,4.2,0.4,7-1,12c0,0,9.7-1,14,3.2
	c4.9,4.7,9.9,9.2,14.6,14.1c2.8,3,5.3,6.3,7.4,9.9c2.3,4.1,3.9,8.6,6,12.9c0.6,1.2,1.9,2,3.4,3.5c3.4-16.4-5.7-27.1-13.8-38.1
	C293.4,190.8,288,183.9,280.9,181.4z"/>
<path id="XMLID_448_" class="st1" d="M280.4,188.8c-2.7-1-10.9-4-11.5-3.7l-0.3,2.1l-0.6,2.4c0,0,9.7-1,14,3.2
	c4.9,4.7,9.9,9.2,14.6,14.1c2.8,3,5.3,6.3,7.4,9.9c2.3,4.1,3.9,8.6,6,12.9c0.6,1.2,1.9,2,3.4,3.5c-4-16.3-8-19.6-16.1-30.6
	C291.1,198.2,287.6,191.3,280.4,188.8z"/>
<path id="XMLID_447_" class="st0" d="M323.5,201.5c-2.2-7.1-3.9-13.7-12-17.6c-7.9-3.8-15.2-12.7-23.5-16c-5.4-2.2-19.2-2-19.2-2
	c0.1,2.1,0.1,7.1,0.1,7.2c0,0,17.6,2.2,19.3,3.4c4.5,2.2,15.4,11.3,19.6,13.8c2.9,1.7,5.7,5.2,8.2,7.4c1.7,1.4,2.8,3.5,4.3,5.2
	c0.6,0.7,1.7,1,2.5,1.5C323.1,203.4,323.7,202.3,323.5,201.5z"/>
<path id="XMLID_446_" class="st1" d="M322.1,201.5c-5.2-7.1-8.6-11.8-16.7-15.7c-7.9-3.8-9.2-8.9-17.4-12.2c-5.4-2.2-19-2.8-19-2.8
	c0.1,2.1,0,2.2,0,2.3c0,0,17.6,2.2,19.3,3.4c4.5,2.2,15.4,11.3,19.6,13.8c2.9,1.7,5.7,5.2,8.2,7.4c1.7,1.4,2.8,3.5,4.3,5.2
	c0.6,0.7,1.7,1,2.5,1.5C323.1,203.4,322.6,202.2,322.1,201.5z"/>
<path id="XMLID_445_" class="st0" d="M99,192.4c-2.3,0.4-4.5,1.5-6.5,3.2c-8.1,7.1-15.7,14.7-17.8,25.9c-0.9,4.4-1.2,8.9,1,13.4
	c2.6-3.8,4.5-7.8,6.6-11.7c1.2-2.3,2.4-4.8,4.2-6.5c4.8-4.5,10-8.7,15.1-13c0.4-0.3,2.8-0.3,3.2-0.6
	C102.4,199.9,100.2,196.3,99,192.4z"/>
<path id="XMLID_444_" class="st0" d="M71.4,154.5c4.4,1,18.2,2.1,25.6,4.1c0-1.6,0-8.2,0-9.8c-10.2-2.6-20.5-5.3-30.7-8
	c-0.7-0.2-1.4-0.9-1.9-1.5c-1.3-1.5-13.9-17.3-14.2-18.6c-1.3-4.9-2.1-10-3.5-14.9c-0.6-2-1-4.9-3-5.8c-0.4-0.2-1.4,0.1-1.7,0.4
	c-3.6,4.3-1.6,23.2-0.6,26C46.8,140.7,56.4,151,71.4,154.5z"/>
<path id="XMLID_443_" class="st0" d="M98,189.2c-1.3-4.7-1-9.9-1-14.8c0,0-3.6,0-5.2,0c-8.8,0-15.3,4.3-20.3,11.6
	c-7.1,10.4-14.8,20.7-11.5,34.6c0.4,1.9,0.7,3.8,1.1,5.6c0.4,0.1,0.8,0.1,1.1,0.2c0.7-1.1,1.6-2.1,2-3.4c1-3.2,1.7-6.4,2.7-9.6
	c0.8-2.7,1.2-6,2.9-7.9c5.2-5.6,11-10.7,17-16.4C91.2,189.2,98,189.2,98,189.2z"/>
<path id="XMLID_442_" class="st0" d="M96.9,171.8c0-3.7,0.1-6.8,0.1-10.3c-6.3-2.1-13.1-1.6-24.7-1c-3.9,0.2-9.4,6.6-14.3,10.8
	c-6.1,5.4-11,11.5-12.6,19.8c-0.4,1.9-0.1,3.9-0.1,5.9c0,0,3.2-3,5.7-5.8c4.3-5,10.9-13.8,16.9-17.1
	C80.9,167.1,96.9,171.8,96.9,171.8z"/>
<path id="XMLID_441_" class="st0" d="M322.3,106.8c-0.8-1.6-2.4-2.8-3.7-4.2c-0.3,0.2-0.7,0.3-1,0.5c-0.8,4.8-1.4,9.6-2.3,14.3
	c-0.4,2.3-0.6,5.1-1.8,6.7c-5.7,8.4-9.3,12.8-16.3,19.2c-0.5,0.5-5.5,1.3-6.2,1.5c-3.4,1.1-6.9,1.9-10.3,3.2
	c-3.9,1.4-7.8,2.7-11.8,3.5c0.1,3.6-0.1,11.2-0.1,11.2c7.8-2.2,16.3-5.2,23.7-7.5c12.2-3.8,22.2-12.8,28.6-27
	C324.5,120.9,326,114.1,322.3,106.8z"/>
<path id="XMLID_440_" class="st0" d="M274.5,198.1c-1.9-2.6-5.2-4.9-7.4-5.8c-2.1,5.3-5.1,10.3-9.2,13.5c0.9,0,4,0,5.2-0.1
	c1.2-0.1,3.4-0.2,3.9,0.5c6.7,9.9,16.7,17.7,20.3,29.8c0.4,1.3,1.6,2.3,3,4.2c2.3-7.3,2.8-13.5-0.4-19
	C285.2,213.3,279.9,205.6,274.5,198.1z"/>
<path id="XMLID_439_" class="st2" d="M184.6,60.7c2.4,0,4.7,0.1,7.1,0c2.6-0.1,4.8,0.6,5.7,3.2c0.9,2.5-1.1,3.9-2.8,5.4
	c-1.3,1.3-4.9,1.2-3.8,3.7c1,2.4,3.9,0.6,5.9,0.4c17.7-1.6,35.3-3.6,53-1.4c2.7,0.3,5.3,1,7.9,1.7c1.8,0.5,3.6,1.5,3.6,3.7
	c0,1.9-1.5,2.9-3,3.7c-5.4,2.9-11.3,4.6-17.2,5.8c-37.8,8-76,13.9-114.5,17.1c-5.4,0.4-10.8,0.4-16.1-1c-1.5-0.4-3.4-0.6-4-2.7
	c-0.6-2.3,1.3-2.9,2.6-3.8c9.7-7.3,21.3-10,32.7-13c10.1-2.6,20.4-4.4,30.7-6.6c1.4-0.3,3.6,0.2,3.5-1.9c0-1.8-2.1-1.1-3.3-1.5
	c-0.9-0.3-2-0.4-3-0.6c-2-0.6-4-1.4-4.4-3.7c-0.4-2.3,1.2-3.7,2.9-4.9C173.1,60.8,178.8,60.4,184.6,60.7z"/>
<g id="XMLID_435_">
	<path id="XMLID_436_" class="st2" d="M296.5,127.9c-0.3-0.8-0.6-1.5-0.6-2.2c0-1.7-0.4-2.8-1.3-3.5c-0.9-0.7-2.1-0.8-3.9-0.3
		c-4.4,1.2-9,2.2-13.4,3.1c-3.4,0.7-6.8,1.5-10.2,2.3c-1.3,0.3-2.5,0.5-3,0c-0.4-0.3-0.5-1.1-0.3-2.2c0.2-1.4,0-2.4-0.6-3
		c-0.9-1-2.4-1.1-3.8-1.1h0c-52.2,0.1-103.4,0-152.1,0c-1.5,0-3.1,0.1-4,1.2c-0.7,0.7-0.9,1.8-0.7,3.3c0.1,1.2,0,2-0.4,2.3
		c-0.4,0.4-1.4,0.3-2.9-0.2c-2.8-0.9-5.8-1.7-8.6-2.4c-4.2-1.2-8.6-2.3-12.8-3.8c-1.9-0.7-3.3-0.7-4.3-0.2c-1.5,0.7-2,2.4-2.8,4.6
		c-0.8,2.4-0.9,3.9-0.2,5c0.6,1.1,1.9,1.8,4,2.4c4.1,1,8.3,2.2,12.3,3.4c3.9,1.1,7.9,2.3,11.9,3.3c2.9,0.7,3.8,1.9,3.8,5.1
		c-0.1,5.5-0.1,11.1,0,16.4c0,6.7,0.1,13.7-0.1,20.6c-0.2,7.9,3.2,16.1,9.2,22.1c5.7,5.8,13.3,8.8,21.2,8.7
		c16.8-0.3,83.2-0.4,99.8,0c0.3,0,0.5,0,0.8,0c8.1,0,15.7-3.2,21.4-9c5.9-6,9.2-14.3,8.9-22.2c-0.2-4.4-0.2-8.8-0.2-13.1
		c-0.2-0.3,0-6.4,0-8.6c0-5,0.1-10.2,0-15.2c-0.1-3.4,0.9-4.7,4-5.3c4.4-0.9,8.8-1.9,13.1-2.9c4.1-1,8.4-2,12.6-2.8
		c1.8-0.4,2.9-1,3.4-1.9C297.5,130.6,297,129.2,296.5,127.9z"/>
</g>
<path id="XMLID_434_" class="st3" d="M110.1,153.6c0,10.2-0.6,20.5,0.4,30.6c0.3,2.8,0.8,6.5,2.4,9.5c4.3,8,20.6,14.8,29.7,12.1
	c1.1-0.3,1.9-0.7,1.8-2c-0.1-1.5-1.1-2.1-2.4-2c-3.8,0.1-7.2-1-10.7-2.3c-7-2.7-12.2-7.5-14.7-14.4c-2.4-6.8-2.8-14.1-2.4-21.3
	C114.5,159.9,113.6,156.5,110.1,153.6z"/>
<g id="XMLID_409_">
	<path id="XMLID_432_" class="st1" d="M125.2,132.8h16.2v4h-11.7v6.6h11v4h-11v10.4h-4.5V132.8z"/>
	<path id="XMLID_429_" class="st1" d="M152,132.8h3.9l10.8,25.1h-5.1l-2.3-5.7h-10.9l-2.3,5.7h-5L152,132.8z M157.7,148.3l-3.9-10.2
		l-3.9,10.2H157.7z"/>
	<path id="XMLID_426_" class="st1" d="M169.8,132.8h8.7c1.2,0,2.4,0.1,3.5,0.3c1.1,0.2,2.1,0.6,3,1.2c0.9,0.5,1.6,1.3,2.1,2.2
		s0.8,2.1,0.8,3.5c0,1.8-0.5,3.3-1.5,4.6s-2.4,2-4.3,2.2l6.7,11.1h-5.4l-5.8-10.6h-3.3v10.6h-4.5V132.8z M177.8,143.4
		c0.6,0,1.3,0,1.9-0.1c0.6-0.1,1.2-0.2,1.8-0.4c0.5-0.2,1-0.6,1.3-1c0.3-0.5,0.5-1.1,0.5-1.9c0-0.7-0.2-1.3-0.5-1.8
		c-0.3-0.4-0.7-0.8-1.2-1s-1-0.4-1.6-0.4c-0.6-0.1-1.2-0.1-1.8-0.1h-3.9v6.8H177.8z"/>
	<path id="XMLID_424_" class="st1" d="M192.5,132.8h4.5v21h10.7v4h-15.1V132.8z"/>
	<path id="XMLID_422_" class="st1" d="M211.1,132.8h4.5v25.1h-4.5V132.8z"/>
	<path id="XMLID_420_" class="st1" d="M243.7,156c-3.1,1.7-6.6,2.5-10.4,2.5c-1.9,0-3.7-0.3-5.3-0.9c-1.6-0.6-3-1.5-4.2-2.7
		c-1.2-1.1-2.1-2.5-2.7-4.1c-0.7-1.6-1-3.4-1-5.3c0-2,0.3-3.8,1-5.5c0.7-1.6,1.6-3,2.7-4.2c1.2-1.2,2.6-2,4.2-2.7
		c1.6-0.6,3.4-0.9,5.3-0.9c1.9,0,3.7,0.2,5.4,0.7c1.7,0.5,3.2,1.3,4.5,2.5l-3.3,3.3c-0.8-0.8-1.8-1.4-2.9-1.8
		c-1.1-0.4-2.4-0.6-3.6-0.6c-1.3,0-2.5,0.2-3.5,0.7c-1.1,0.5-2,1.1-2.7,1.9s-1.3,1.8-1.8,2.9c-0.4,1.1-0.6,2.3-0.6,3.5
		c0,1.3,0.2,2.6,0.6,3.7c0.4,1.1,1,2.1,1.8,2.9c0.8,0.8,1.7,1.5,2.7,1.9c1,0.5,2.2,0.7,3.5,0.7c1.1,0,2.2-0.1,3.2-0.3s1.9-0.5,2.7-1
		v-5.9h-5.1v-4h9.6V156z"/>
	<path id="XMLID_418_" class="st1" d="M151.7,191.8c-1.9,1-3.9,1.7-5.9,2.1c-2.1,0.4-4.2,0.7-6.3,0.7c-2.3,0-4.4-0.4-6.3-1.1
		c-1.9-0.7-3.6-1.7-5-3.1c-1.4-1.3-2.5-2.9-3.3-4.8c-0.8-1.9-1.2-4-1.2-6.3c0-2.3,0.4-4.4,1.2-6.3c0.8-1.9,1.9-3.5,3.3-4.8
		c1.4-1.3,3.1-2.4,5-3.1c1.9-0.7,4-1.1,6.3-1.1c2.3,0,4.5,0.3,6.4,0.8c2,0.6,3.7,1.5,5.2,2.9l-4.5,4.9c-0.9-0.9-1.9-1.6-3-2.1
		c-1.1-0.5-2.5-0.7-4.1-0.7c-1.4,0-2.6,0.2-3.7,0.7c-1.1,0.5-2.1,1.1-2.9,2c-0.8,0.8-1.4,1.8-1.8,3c-0.4,1.2-0.6,2.4-0.6,3.7
		c0,1.4,0.2,2.6,0.6,3.8c0.4,1.1,1,2.1,1.8,3s1.8,1.5,2.9,2c1.1,0.5,2.4,0.7,3.7,0.7c1.4,0,2.6-0.2,3.6-0.5s1.8-0.6,2.4-1v-4.7h-5.2
		v-5.9h11.4V191.8z"/>
	<path id="XMLID_415_" class="st1" d="M155.8,179.3c0-2.3,0.4-4.4,1.2-6.3c0.8-1.9,1.9-3.5,3.3-4.8c1.4-1.3,3.1-2.4,5-3.1
		c1.9-0.7,4-1.1,6.3-1.1c2.3,0,4.4,0.4,6.3,1.1c1.9,0.7,3.6,1.7,5,3.1c1.4,1.3,2.5,2.9,3.3,4.8c0.8,1.9,1.2,4,1.2,6.3
		c0,2.3-0.4,4.4-1.2,6.3c-0.8,1.9-1.9,3.5-3.3,4.8s-3.1,2.4-5,3.1s-4,1.1-6.3,1.1c-2.3,0-4.4-0.4-6.3-1.1c-1.9-0.7-3.6-1.7-5-3.1
		c-1.4-1.3-2.5-2.9-3.3-4.8C156.2,183.7,155.8,181.6,155.8,179.3z M162.5,179.3c0,1.4,0.2,2.6,0.6,3.8c0.4,1.1,1,2.1,1.8,3
		s1.8,1.5,2.9,2c1.1,0.5,2.4,0.7,3.7,0.7c1.4,0,2.6-0.2,3.7-0.7c1.1-0.5,2.1-1.1,2.9-2c0.8-0.8,1.4-1.8,1.8-3
		c0.4-1.1,0.6-2.4,0.6-3.8c0-1.3-0.2-2.6-0.6-3.7c-0.4-1.2-1-2.1-1.8-3c-0.8-0.8-1.8-1.5-2.9-2c-1.1-0.5-2.4-0.7-3.7-0.7
		c-1.4,0-2.6,0.2-3.7,0.7c-1.1,0.5-2.1,1.1-2.9,2c-0.8,0.8-1.4,1.8-1.8,3C162.7,176.7,162.5,178,162.5,179.3z"/>
	<path id="XMLID_412_" class="st1" d="M191.7,164.7h9.6c2.3,0,4.6,0.3,6.7,0.8c2.1,0.5,3.9,1.4,5.5,2.5c1.6,1.2,2.8,2.7,3.7,4.6
		c0.9,1.9,1.4,4.1,1.4,6.8c0,2.4-0.4,4.4-1.3,6.2s-2.1,3.3-3.6,4.5c-1.5,1.2-3.3,2.1-5.2,2.8s-4.1,0.9-6.2,0.9h-10.5V164.7z
		 M198.1,187.9h3.3c1.5,0,2.9-0.2,4.1-0.5c1.3-0.3,2.4-0.8,3.3-1.5c0.9-0.7,1.7-1.6,2.2-2.8c0.5-1.1,0.8-2.5,0.8-4.2
		c0-1.4-0.3-2.7-0.8-3.7c-0.5-1.1-1.3-1.9-2.2-2.6s-2-1.2-3.2-1.5c-1.2-0.3-2.5-0.5-3.9-0.5h-3.8V187.9z"/>
	<path id="XMLID_410_" class="st1" d="M228.6,170.4h-8.3v-5.7h23.1v5.7H235v23.5h-6.4V170.4z"/>
</g>
<g id="XMLID_407_">
	<path id="XMLID_408_" class="st1" d="M75.7,234.8c2-3.1,3.5-5.9,5.1-8.8c1.5-2.7,2.5-5.4,4.4-8c2-2.7,7.9-7.2,10.6-9.6
		c2.6-2.2,3.5-2.9,5.9-4.9c0.7-0.6,2.3-0.1,3.2-0.6l-1.9-2.7c-6.5,3.6-13.4,7.8-18.1,13.6c-4.7,5.8-6,10.9-8.9,17.7
		C75.1,233.4,75.7,234.8,75.7,234.8z"/>
</g>
<g id="XMLID_405_">
	<path id="XMLID_406_" class="st1" d="M64.1,223.4c1.5-3.4,1.7-5.9,2.8-9.8c0.6-2.2,1.2-6,2.5-7.5c2.9-3.4,9-8.9,12.1-12
		c1.5-1.5,5.4-5,5.4-5s2.2,0,3.4,0c2.9,0,4.9,0,7.8,0l-0.4-1.7l-0.2-1.1c-4.3-0.2-9-2.1-12.9,0.1c-4.4,2.5-8.7,8.5-12.2,12.1
		c-3.2,3.3-5.7,6.7-7.2,11c-1.8,5-2.8,16.6-2.8,16.6S63.7,224.2,64.1,223.4z"/>
</g>
<g id="XMLID_403_">
	<path id="XMLID_404_" class="st1" d="M45.4,197c8.6-7.8,13.3-17.4,22.1-22.6c8.6-5.1,18.5-5.1,29.5-2.6l0-3.4
		c-21.9-7.4-39.8,5.1-49.3,22.9C46,194.4,45.4,197,45.4,197z"/>
</g>
<g id="XMLID_401_">
	<path id="XMLID_402_" class="st1" d="M41,102.9c-0.2,0.9-0.6,2.6-0.8,4.9c-0.4,4.7-0.3,11.4,0.9,16.7c1.8,7.8,5.9,13.6,11.2,19.5
		c4.8,5.2,12.3,9.4,19.5,10.6c8.3,1.4,17.1,1.9,25.3,4l0-3c-7.1-0.8-15.9-2.5-23-3.4c-8.5-1.2-13.9-4.7-19.6-10.9
		c-5.4-5.8-14.6-20.3-12.7-36.3c0.2-1.9,0.3-4.5,0.3-4.5S41.2,101.7,41,102.9z"/>
</g>
<g id="XMLID_399_">
	<path id="XMLID_400_" class="st1" d="M268.9,162.7c9.5-2.7,18.9-5.6,27.9-9.1c7.1-2.7,13.4-8.4,17.2-13.2c2.2-2.8,4.2-6.1,6-9.7
		c2.9-5.7,5.1-12.1,4.2-18.1c-0.3-2-0.9-4.1-1.9-6c-0.8-1.4-2.1-2.8-3.6-4.1l-1,0.5c0.1,0.3,1,0.8,1.3,1.3
		c10,11.2-2.3,29.4-10.7,38.2c-4.9,5.1-11.1,7.4-17.6,9.7c-7.5,2.7-14.3,5.2-21.8,7.8L268.9,162.7z"/>
</g>
<path id="XMLID_398_" class="st1" d="M271.4,206c-1.9-2.6-7.9-2.6-10.1-3.5c-2.6,2.9-3.4,3.3-3.4,3.3s4,0,5.2-0.1
	c1.2-0.1,3.4-0.2,3.9,0.5c6.7,9.9,16.7,17.7,20.3,29.8c0.4,1.3,1.6,2.3,3,4.2c0.6-7.3-2.4-11.3-5.7-16.8
	C279.9,215.5,276.8,213.5,271.4,206z"/>
<g id="XMLID_396_">
	<path id="XMLID_397_" class="st1" d="M100,117.1c-7.4-2-19.8-5.3-24.6-11.4c-3.8-4.7-3.2-12-5.7-17.8c-3.5-7.8-7-13.7-8.7-20.5
		c-0.9-3.5-1.4-7.6-3.4-3.8c-0.8,1.5-1.5,3-1.2,4.1c0.8,4.6,2.2,8.7,3.7,14c1.9,6.3,5.2,8.9,6.4,14.2c1.2,5.3-0.8,8.4,1.8,11.8
		c2.1,2.8,6.1,4.3,9.2,5.8c6.5,3.2,12.5,6.5,19.1,8.7c0.9,0.3,2.4,0.9,2.8,0.6c0.3-0.2,0.3-4.1,0.3-4.1L100,117.1z"/>
</g>
<g id="XMLID_394_">
	<path id="XMLID_395_" class="st1" d="M90.2,76.9c14.2-6.8,33.3-11.6,49.7-15.9c5.9-1.5,11.8-3.2,17.4-4.7c3.9-1,7.3-1.9,11.5-3.6
		c4.3-1.8-5.8-4.4-5.8-4.4c-23.9,8.2-49.8,14.6-73.7,22.8c-5.5,1.9-4.7,16-2.6,12L90.2,76.9z"/>
</g>
<g id="XMLID_371_">
	<path id="XMLID_380_" class="st1" d="M134.1,41c1.9-1,4.3-1.4,6.2-1.7c2.5-0.5,5.3,0.2,9.1,0.4c4.4,0.2,8.5,0.5,12.9,0.6
		c3.3,0.1,7.3,0.9,10.6,0.9c4.2,0,4.2-3.1,4.2-3.1c-5.6,1.7-12.7-0.9-19.6-1.3c-4.1-0.3-8.1-1.1-11.8-1c-7.8,0.1-12.8,1.3-19.8,2.3
		c-1.4,0.2-2.7,3.5-2.3,4.1c0,0,0.6-1.1,1.4-1.6c1.4-0.9,2.8-1.5,4-1.5c0.4,0,1.2-0.1,2,0.2C132.5,39.7,133.2,41.4,134.1,41z"/>
</g>
</svg>
