<svg id="Layer_1" data-name="Layer 1" xmlns="http://www.w3.org/2000/svg" viewBox="0 0 64 64"><defs><style>.cls-1,.cls-2{fill:#2b2b2b;}.cls-1{fill-rule:evenodd;}</style></defs><title>vegetables</title><polygon class="cls-1" points="42.15 54.03 38.76 50.35 38.16 44.67 42.15 38.99 47.53 36.47 48.83 33.91 48.13 29.82 49.66 30.82 52 28.37 52 31 54.6 31 52.51 33.37 52.81 35.73 55.8 37.56 61.18 41.19 61.98 49.24 58.59 54.03 52.11 55.33 42.15 54.03"/><polygon class="cls-2" points="32.08 23.81 30.81 24.85 34 24.4 34 26.83 34.75 24.66 36.93 25.93 35.54 24 37.85 24 35.88 23.07 35 23.55 35 22.8 34.61 20.68 33.03 20.93 33.34 23.53 30.85 22.8 32.08 23.81"/><polygon class="cls-2" points="42.81 24.95 39.56 23.13 37.79 23.07 37.09 22.93 39.95 24 36.45 24 38.27 27.14 34.7 25.17 33 28.83 33 24.98 28.29 25.7 31.3 23.76 29.92 22.66 27.44 23.54 25.78 25.91 24.93 31.88 27.33 37.51 33.14 39.95 39.37 38.81 44.32 35.99 44.56 30.52 42.81 24.95"/><polygon class="cls-2" points="14.38 29.89 16.54 28.52 14.54 25.35 13.98 26.87 9.42 20.05 9.71 23.21 2.63 18.2 6.42 23.28 4.03 24.78 10.07 26.33 8.6 27.77 14.38 29.89"/><polygon class="cls-2" points="11.85 22.34 13.94 25.65 14.65 24.23 16.9 27.78 18.15 23.84 16.63 24.02 18.56 19.6 14.94 19.99 18.51 15.9 15.56 16.71 14.35 10.34 12.88 15.79 10.45 14.63 12.66 20.31 10.09 18.26 11.85 22.34"/><polygon class="cls-2" points="33.19 55.33 28.2 44.13 27.24 44.46 27.66 42.97 25.52 38.15 24.78 38.34 24.95 37.18 22.51 32 21.32 32 22.03 30.61 21.38 28.98 18.09 28.48 14.72 30.57 14.28 33.58 17.86 38 19.06 38 18.61 38.63 21.98 42.54 23 42.3 23 43.71 26.79 48 28 48 28 49.21 33.19 55.33"/></svg>