<svg id="Layer_1" data-name="Layer 1" xmlns="http://www.w3.org/2000/svg" viewBox="0 0 64 64"><defs><style>.cls-1{fill:#f8f8f8;}</style></defs><title>chees_white</title><path class="cls-1" d="M45,13H31.88c.23,0,.36.21.36.51,0,1.25-2.37,2.11-5.29,2.11s-5.29-.77-5.29-2c0-.29.13-.59.36-.59H10L54,27Zm-2.68,7.12c-1.91,0-3.45-.66-3.45-1.48s1.54-1.48,3.45-1.48,3.45.66,3.45,1.48S44.19,20.12,42.29,20.12Z"/><path class="cls-1" d="M10,14.38v6.69c0-.11.55-.16.83-.16,1.7,0,3.08,2,3.08,4.54S12.53,30,10.83,30c-.28,0-.83-.06-.83-.16V40.08a4,4,0,0,1,.83-.05c2.82,0,5.14,1.89,5.3,4.27L54,56.34v-28Zm9.92,9a2.06,2.06,0,0,1,1.75-2.26,2.06,2.06,0,0,1,1.75,2.26,2.06,2.06,0,0,1-1.75,2.26A2.06,2.06,0,0,1,19.92,23.36Zm5.71,18.39c-1.7,0-3.07-2-3.07-4.54s1.38-4.54,3.07-4.54,3.07,2,3.07,4.54S27.33,41.74,25.64,41.74ZM37,31a2.47,2.47,0,0,1-2.64-2.26,2.67,2.67,0,0,1,5.28,0A2.47,2.47,0,0,1,37,31Zm7,20.35a2.34,2.34,0,0,1,0-4.53,2.34,2.34,0,0,1,0,4.53Zm3.29-11.88c-.85,0-1.54-1-1.54-2.27s.69-2.27,1.54-2.27,1.54,1,1.54,2.27S48.18,39.48,47.33,39.48Z"/></svg>