<svg id="Layer_1" data-name="Layer 1" xmlns="http://www.w3.org/2000/svg" viewBox="0 0 64 64"><defs><style>.cls-1{fill:#2b2b2b;}</style></defs><title>soup</title><path class="cls-1" d="M54,37.1V37H15v.1A19.56,19.56,0,0,0,25,54.46V57H43V54.46C49,51.22,54,44.66,54,37.1Z"/><path class="cls-1" d="M22.79,33.39A3,3,0,0,0,20.18,36h.4a2.38,2.38,0,0,1,2.22-2.22A2.38,2.38,0,0,1,25,36h.4A3,3,0,0,0,22.79,33.39Z"/><path class="cls-1" d="M22.79,32.37A3.63,3.63,0,0,0,19.16,36h.55a2.9,2.9,0,0,1,3.08-3.08A2.9,2.9,0,0,1,25.87,36h.55A3.63,3.63,0,0,0,22.79,32.37Z"/><path class="cls-1" d="M22.79,31a4.91,4.91,0,0,0-5,5h.76a4.53,4.53,0,0,1,4.28-4.28A4.53,4.53,0,0,1,27.07,36h.76A4.91,4.91,0,0,0,22.79,31Z"/><path class="cls-1" d="M22.79,30.06A6.13,6.13,0,0,1,28.74,36H29.8a7,7,0,0,0-14,0h1.06A6.13,6.13,0,0,1,22.79,30.06Z"/><path class="cls-1" d="M33.82,27.1l-16-11.63.23-.32-5.28-3.83-.23.32-1.08,1.48-.23.32,5.28,3.83.23-.32L32.65,28.51A7,7,0,0,1,33.82,27.1Z"/><path class="cls-1" d="M22,10.13,34.45,26.58a7,7,0,0,1,1.63-.88L23.45,9l.32-.24-3.94-5.2-.32.24-1.46,1.1-.32.24,3.94,5.2Z"/><path class="cls-1" d="M41.31,32.2a3.87,3.87,0,0,0-3.8,3.8h.58a3.22,3.22,0,0,1,6.45,0h.58A3.87,3.87,0,0,0,41.31,32.2Z"/><path class="cls-1" d="M41.31,30.72A5.23,5.23,0,0,0,36,36h.8a4.82,4.82,0,0,1,4.48-4.48A4.82,4.82,0,0,1,45.79,36h.8A5.23,5.23,0,0,0,41.31,30.72Z"/><path class="cls-1" d="M41.31,28.67A7.36,7.36,0,0,0,34,36h1.11a6.52,6.52,0,0,1,6.22-6.22A6.52,6.52,0,0,1,47.53,36h1.11A7.36,7.36,0,0,0,41.31,28.67Z"/><path class="cls-1" d="M41.31,27.36A8.5,8.5,0,0,1,49.95,36h1.54A10,10,0,0,0,41.31,25.82,10,10,0,0,0,31.12,36h1.54A8.5,8.5,0,0,1,41.31,27.36Z"/></svg>