<svg id="Layer_1" data-name="Layer 1" xmlns="http://www.w3.org/2000/svg" viewBox="0 0 64 64"><defs><style>.cls-1{fill:#2b2b2b;}</style></defs><title>wheat</title><polygon class="cls-1" points="16 43.6 10 30.45 10 48 16 48 16 43.6"/><polygon class="cls-1" points="19 43 19 38.27 14.12 25.05 15.35 43 19 43"/><polygon class="cls-1" points="25 37 25 32.94 19.79 19.38 20.68 37 25 37"/><polygon class="cls-1" points="30 32 30 27.61 24.95 14.22 26.01 32 30 32"/><polygon class="cls-1" points="36 26 36 22.29 30.62 8.55 31.34 26 36 26"/><polygon class="cls-1" points="41 29 41 34.51 55.8 33.69 45.23 29 41 29"/><polygon class="cls-1" points="53.02 12.78 41 20.39 41 26 45.95 26 53.02 12.78"/><polygon class="cls-1" points="36 34 36 39.84 50.64 38.86 39.9 34 36 34"/><polygon class="cls-1" points="30 40 30 45.17 44.97 44.52 34.57 40 30 40"/><polygon class="cls-1" points="25 46 25 50.5 39.81 50.19 29.24 46 25 46"/><polygon class="cls-1" points="19 51 19 55.83 34.15 55.35 23.91 51 19 51"/><polygon class="cls-1" points="39.3 25.2 11.46 53.57 13.1 54.88 41.36 26.68 39.3 25.2"/></svg>